PathFileType	4	(X/Y/Z)	0_coords_data.trc
DataRate	CameraRate	NumFrames	NumMarkers	Units	OrigDataRate	OrigDataStartFrame	OrigNumFrames
30.0	30.0	8	21	m	30.0	42	72
Frame#	Time	THUMB_TIP	THUMB_IP	THUMB_MCP	THUMB_CMC	INDEX_TIP	INDEX_DIP	INDEX_PIP	INDEX_MCP	MIDDLE_TIP	MIDDLE_DIP	MIDDLE_PIP	MIDDLE_MCP	RING_TIP	RING_DIP	RING_PIP	RING_MCP	PINKY_TIP	PINKY_DIP	PINKY_PIP	PINKY_MCP	WRIST
X1	Y1	Z1	X2	Y2	Z2	X3	Y3	Z3	X4	Y4	Z4	X5	Y5	Z5	X6	Y6	Z6	X7	Y7	Z7	X8	Y8	Z8	X9	Y9	Z9	X10	Y10	Z10	X11	Y11	Z11	X12	Y12	Z12	X13	Y13	Z13	X14	Y14	Z14	X15	Y15	Z15	X16	Y16	Z16	X17	Y17	Z17	X18	Y18	Z18	X19	Y19	Z19	X20	Y20	Z20	X21	Y21	Z21
41	1.3666666666666667	-0.04353820037841797	-0.08811109924316406	0.9962479858398438	-0.03725320053100586	-0.0618115005493164	0.9912789916992187	-0.04925849914550781	-0.033750900268554686	0.985802978515625	-0.04133509826660156	0.001572440028190612	0.9872119750976562	0.0032478299140930172	-0.12370500183105469	0.925093017578125	-0.004954830169677734	-0.1015500030517578	0.9280800170898438	-0.013324600219726562	-0.07826409912109375	0.9317039794921875	-0.024408000946044922	-0.037215900421142575	0.9370239868164062	0.027310400009155272	-0.11301399993896484	0.96797998046875	0.02622610092163086	-0.09591780090332032	0.9520910034179687	0.020004299163818358	-0.07082689666748047	0.9356010131835938	0.000679436981678009	-0.02953809928894043	0.9375399780273438	0.046248001098632814	-0.0900166015625	0.976406982421875	0.0495005989074707	-0.076693603515625	0.9590830078125	0.04506100082397461	-0.054035701751708985	0.9417860107421875	0.02126420021057129	-0.02091710090637207	0.9482919921875	0.08593190002441406	-0.06050279998779297	0.9628319702148438	0.07421669769287109	-0.04366529846191406	0.9612139892578125	0.06039130020141602	-0.02784079933166504	0.9594569702148438	0.033832199096679685	-0.00727642011642456	0.9628380126953126	-0.02995989990234375	0.04437030029296875	0.9934039916992188
42	1.4	-0.03884230041503906	-0.09347360229492188	0.9941119995117188	-0.03519380187988281	-0.06636990356445313	0.9910490112304687	-0.05012860107421875	-0.03884999847412109	0.9881099853515625	-0.042984298706054684	-0.004021729946136475	0.990739990234375	0.007429790019989013	-0.12143199920654296	0.9213599853515625	-0.0022763600349426268	-0.10019100189208985	0.9255709838867188	-0.012405400276184081	-0.07765979766845703	0.930322998046875	-0.026320100784301758	-0.038310501098632814	0.9381719970703125	0.03369979858398438	-0.1117760009765625	0.9597319946289062	0.030054399490356445	-0.09358180236816406	0.9458150024414063	0.020749000549316405	-0.067654296875	0.9322009887695313	-0.001770830035209655	-0.028408599853515626	0.9380120239257812	0.05187210083007812	-0.08891549682617188	0.9689099731445312	0.05230059814453125	-0.0733583984375	0.9532069702148438	0.04418980026245117	-0.049677501678466796	0.938260986328125	0.018473100662231446	-0.018834600448608397	0.9484080200195313	0.08505729675292968	-0.05654290008544922	0.9597999877929687	0.07271080017089844	-0.03987760162353516	0.959791015625	0.058409000396728514	-0.024085199356079102	0.9578690185546875	0.031018699645996094	-0.004871429920196534	0.9637410278320313	-0.03515510177612305	0.040599201202392576	0.9994429931640625
43	1.4333333333333333	-0.033705101013183594	-0.09846189880371094	0.991760986328125	-0.032957199096679685	-0.07072019958496094	0.9906430053710937	-0.0505629997253418	-0.044263301849365236	0.9905850219726563	-0.04445899963378906	-0.009196319580078126	0.9963519897460937	0.010604900360107422	-0.11836599731445313	0.9178930053710938	-0.000551289021968841	-0.09810320281982422	0.923197998046875	-0.012134400367736817	-0.07678150177001954	0.929094970703125	-0.028819299697875975	-0.039245201110839845	0.9397080078125	0.041209400177001955	-0.1084280014038086	0.9484180297851562	0.033940299987792966	-0.08933879852294922	0.9374450073242188	0.020489700317382814	-0.06327330017089844	0.9283060302734375	-0.004846409797668457	-0.027337900161743166	0.9385250244140625	0.06003630065917969	-0.08583489990234375	0.9572490234375	0.05553099822998047	-0.06793479919433594	0.9447009887695312	0.04269599914550781	-0.04391070175170898	0.934426025390625	0.014659000396728515	-0.016441799163818358	0.9487529907226563	0.0839531021118164	-0.05030770111083984	0.9558369750976563	0.07102649688720702	-0.03437749862670898	0.95627099609375	0.05571630096435547	-0.01943390083312988	0.9559970092773438	0.027007099151611327	-0.002756099939346313	0.9639630126953125	-0.04051919937133789	0.03598550033569336	1.0054099731445312
44	1.4666666666666666	-0.02462369918823242	-0.10212300109863282	0.986364990234375	-0.026634599685668944	-0.07454519653320313	0.9881849975585938	-0.0474911994934082	-0.05024200057983398	0.9916699829101563	-0.04344419860839844	-0.015549799919128419	0.9990709838867188	0.016675500869750975	-0.11174299621582032	0.91260400390625	0.00334276008605957	-0.09318810272216797	0.9190059814453125	-0.010604700088500977	-0.07345110321044922	0.9266259765625	-0.031229499816894532	-0.039430500030517575	0.9403469848632813	0.048476100921630856	-0.10010600280761718	0.9346380004882813	0.037116798400878906	-0.08099610137939453	0.9276669921875	0.01956909942626953	-0.05624629974365234	0.9229559936523437	-0.008480270385742188	-0.02465449905395508	0.9380609741210938	0.06728150177001953	-0.07688600158691407	0.9428400268554687	0.05750460052490235	-0.05821390151977539	0.9345150146484374	0.039811100006103516	-0.03538169860839844	0.9291279907226563	0.010222200393676759	-0.012222800254821777	0.9479739990234375	0.08319190216064454	-0.038937999725341794	0.9470540161132812	0.06868209838867187	-0.024424299240112305	0.9494149780273438	0.05204050064086914	-0.011252799987792968	0.951531982421875	0.023247400283813478	0.001680590033531189	0.9634849853515625	-0.04541400146484375	0.02979840087890625	1.0107999877929688
45	1.5	-0.01194379997253418	-0.10176899719238282	0.983989013671875	-0.018553300857543944	-0.07489189910888672	0.9880590209960938	-0.04237540054321289	-0.05372010040283203	0.9950960083007813	-0.04068849945068359	-0.01961319923400879	1.00322998046875	0.02275979995727539	-0.10160600280761718	0.9043729858398437	0.00795389986038208	-0.08589189910888671	0.913489013671875	-0.00796072006225586	-0.06886540222167968	0.92456201171875	-0.03117959976196289	-0.04009130096435547	0.9427789916992187	0.055952499389648434	-0.08616500091552734	0.9188909912109375	0.04067419815063476	-0.06870469665527344	0.9166339721679687	0.018507699966430664	-0.046891399383544925	0.917843017578125	-0.011645000457763672	-0.02185689926147461	0.9383410034179688	0.07336049652099609	-0.059981300354003904	0.9254459838867187	0.0581870002746582	-0.04278950119018555	0.9226740112304688	0.03623300170898437	-0.02358650016784668	0.9228579711914062	0.0057221798896789555	-0.007016210079193115	0.9467160034179688	0.08148780059814453	-0.022133100509643556	0.9369190063476562	0.06559020233154297	-0.010066499710083008	0.9408610229492187	0.047466899871826174	0.000533266007900238	0.9453369750976562	0.018347400665283203	0.00815447998046875	0.9610780029296875	-0.04871440124511719	0.024397699356079102	1.0149299926757813
46	1.5333333333333334	0.0013191800117492672	-0.09847489929199219	0.985531982421875	-0.008943269729614258	-0.07293599700927735	0.9903660278320312	-0.03583810043334961	-0.0550093994140625	0.9997650146484375	-0.03755550003051758	-0.0210216007232666	1.0078200073242187	0.02797890090942383	-0.09254290008544921	0.9012979736328125	0.012213100433349609	-0.07909709930419923	0.9122760009765625	-0.004998809814453125	-0.06425070190429688	0.9257579956054688	-0.03001650047302246	-0.039832298278808596	0.9470590209960937	0.0603932991027832	-0.07113259887695313	0.908135009765625	0.04187189865112305	-0.05600230026245117	0.9101649780273438	0.016808799743652344	-0.038301101684570314	0.9161790161132812	-0.014580300331115723	-0.01935379981994629	0.9408839721679687	0.07558470153808594	-0.041810001373291016	0.9135159912109375	0.056774398803710935	-0.02760960006713867	0.9153410034179688	0.03189389991760254	-0.012610400199890136	0.9203109741210938	0.0011825599670410149	-0.002097170114517212	0.9479660034179688	0.07824040222167969	-0.0048593001365661624	0.9303699951171875	0.06105709838867188	0.004258170127868653	0.9359509887695312	0.04201190185546875	0.011791999816894532	0.9422360229492187	0.013363699913024902	0.014334400177001954	0.9611519775390625	-0.050539600372314454	0.020410200119018555	1.0203499755859375
47	1.5666666666666667	0.013785400390625	-0.09270089721679688	0.9816799926757812	0.000237102001905441	-0.06900759887695312	0.98902001953125	-0.028339099884033204	-0.05506029891967774	1.0019600219726563	-0.03353099822998047	-0.022048700332641603	1.0120999755859375	0.03043720054626465	-0.08108940124511718	0.8965170288085937	0.014323800086975098	-0.07024299621582031	0.909781005859375	-0.0033957500457763674	-0.058278301239013675	0.9253079833984375	-0.02916279983520508	-0.037981300354003905	0.9497000122070313	0.06096829986572266	-0.05650960159301758	0.9003900146484375	0.040703800201416014	-0.04417689895629883	0.9061099853515625	0.01434630012512207	-0.02989469909667969	0.915947021484375	-0.017057300567626953	-0.015508399963378907	0.9441019897460937	0.07352469635009766	-0.02646890068054199	0.906197998046875	0.053530601501464846	-0.015265600204467773	0.9115700073242188	0.02731599998474121	-0.003739510059356689	0.9204400024414062	-0.002223259925842285	0.002550430059432983	0.95047900390625	0.07369519805908203	0.007963759899139404	0.9278049926757812	0.056048900604248046	0.015197400093078614	0.9349409790039063	0.036690898895263675	0.020417800903320314	0.942718994140625	0.009208270072937012	0.019293800354003906	0.963041015625	-0.050711299896240236	0.016647899627685547	1.0260400390625
48	1.6	0.022860700607299805	-0.08556009674072265	0.9775079956054687	0.007206389904022217	-0.06458419799804688	0.9878159790039063	-0.021142900466918944	-0.05428810119628906	1.0047999877929688	-0.029110700607299804	-0.022222799301147463	1.0166099853515624	0.028740400314331054	-0.06710559844970704	0.8894420166015625	0.012999600410461425	-0.05928319931030274	0.9057639770507813	-0.003731029987335205	-0.05089030075073242	0.9238820190429687	-0.02887430000305176	-0.03586090087890625	0.9536430053710937	0.05697549819946289	-0.04025479888916016	0.8914240112304688	0.036093299865722656	-0.031034799575805665	0.9012130126953125	0.009598159790039062	-0.0207367000579834	0.9154849853515625	-0.019803800582885743	-0.01184510040283203	0.948114013671875	0.06797380065917968	-0.010147700309753418	0.898719970703125	0.047433700561523434	-0.002075690031051635	0.908093017578125	0.02142020034790039	0.005599790096282959	0.9207969970703125	-0.006175749778747559	0.007204319953918457	0.9536060180664062	0.06778299713134765	0.020176200866699218	0.9254769897460937	0.04994340133666992	0.025216100692749023	0.9341380004882812	0.030812900543212892	0.028341299057006837	0.9435390014648437	0.004955780029296875	0.02421500015258789	0.9659030151367187	-0.04962889862060547	0.013542900085449219	1.0321500244140625
